<svg class="svg-sprite" xmlns="http://www.w3.org/2000/svg">
    <symbol id="logo" viewBox="0 0 205 40">
        <path d="M.841 11.0236c-.2066-.3299-.3984-.7799-.5754-1.3498C.0886 9.1038 0 8.5039 0 7.874c0-1.1698.2508-2.0097.7524-2.5197.5311-.51 1.2097-.7649 2.0359-.7649h19.2968c.2065.33.3983.78.5753 1.3499.1771.5699.2656 1.1698.2656 1.7997 0 1.1699-.2656 2.0098-.7967 2.5197-.5016.51-1.1654.7649-1.9916.7649H15.225V31.811c-.3246.09-.8409.18-1.5491.27-.6786.09-1.3572.135-2.0359.135-.6786 0-1.2835-.06-1.8146-.18-.5016-.09-.9294-.27-1.2835-.5399-.354-.27-.6196-.645-.7966-1.1249-.177-.4799-.2656-1.1099-.2656-1.8898V11.0236H.841ZM31.8497 31.946c-.2951.09-.7672.18-1.4163.27-.6196.09-1.2688.135-1.9474.135-.6491 0-1.2393-.045-1.7704-.135-.5016-.09-.9294-.27-1.2835-.54-.354-.2699-.6343-.6299-.8409-1.0798-.177-.48-.2655-1.0949-.2655-1.8448V15.2531c0-.6899.118-1.2748.354-1.7548.2656-.5099.6344-.9599 1.1065-1.3498.4721-.39 1.0475-.7349 1.7261-1.0349.7081-.3299 1.4605-.6149 2.2572-.8549.7967-.24 1.6228-.42 2.4785-.54.8556-.1499 1.7113-.2249 2.567-.2249 1.4163 0 2.5375.285 3.3636.8549.8262.5399 1.2393 1.4398 1.2393 2.6997 0 .4199-.059.8399-.177 1.2598-.1181.39-.2656.7499-.4426 1.0799-.6197 0-1.254.03-1.9032.09-.6491.06-1.2835.1499-1.9031.2699-.6196.12-1.2097.255-1.7703.405-.5311.12-.9885.2699-1.372.4499V31.946ZM42.3448 4.0495c0-1.1399.3689-2.0997 1.1065-2.8796C44.2185.3899 45.2216 0 46.4609 0c1.2392 0 2.2277.39 2.9653 1.1699.7672.7799 1.1508 1.7397 1.1508 2.8796s-.3836 2.0997-1.1508 2.8796c-.7376.78-1.7261 1.1699-2.9653 1.1699-1.2393 0-2.2424-.39-3.0096-1.1699-.7376-.7799-1.1065-1.7397-1.1065-2.8796Zm7.8781 27.8965c-.3246.06-.8114.135-1.4606.225-.6196.12-1.2539.18-1.9031.18-.6491 0-1.2392-.045-1.7703-.135-.5016-.09-.9295-.27-1.2835-.54-.3541-.2699-.6344-.6299-.8409-1.0798-.1771-.48-.2656-1.0949-.2656-1.8448V10.4387c.3246-.06.7967-.135 1.4163-.225a10.691 10.691 0 0 1 1.9474-.18c.6491 0 1.2245.045 1.7261.135.5311.09.9736.27 1.3277.54.3541.2699.6196.6449.7967 1.1248.2065.45.3098 1.0499.3098 1.7998V31.946ZM64.8825 9.4488c1.7704 0 3.408.24 4.9127.7199 1.5344.45 2.8474 1.1549 3.9391 2.1148 1.0917.9598 1.9473 2.1747 2.567 3.6445.6196 1.4398.9294 3.1646.9294 5.1744 0 1.9197-.2655 3.5995-.7966 5.0393-.5312 1.4399-1.2835 2.6547-2.2572 3.6446-.9737.9599-2.154 1.6798-3.5407 2.1597-1.3573.4799-2.8769.7199-4.5587.7199-1.2687 0-2.449-.195-3.5407-.5849v7.4691c-.295.0899-.7671.1799-1.4163.2699-.6491.12-1.313.18-1.9916.18-.6491 0-1.2392-.045-1.7703-.135-.5016-.09-.9295-.2699-1.2835-.5399-.3541-.27-.6197-.6449-.7967-1.1249-.177-.4499-.2656-1.0498-.2656-1.7998V14.8031c0-.8098.1623-1.4698.4869-1.9797.3541-.5099.8262-.9749 1.4163-1.3948.9147-.6 2.0506-1.0799 3.4079-1.4398 1.3573-.36 2.8768-.54 4.5586-.54Zm.0886 17.1879c3.039 0 4.5586-1.8448 4.5586-5.5343 0-1.9198-.3836-3.3446-1.1507-4.2745-.7377-.9299-1.8146-1.3948-3.2309-1.3948-.5606 0-1.0622.075-1.5048.2249-.4426.12-.8262.27-1.1507.45v9.8987c.354.18.7376.33 1.1507.45s.8557.18 1.3278.18ZM105.466 31.811c-.325.09-.841.18-1.549.27-.679.09-1.357.135-2.036.135s-1.283-.06-1.815-.18c-.5011-.09-.929-.27-1.283-.5399-.3541-.27-.6197-.645-.7967-1.1249-.177-.4799-.2656-1.1099-.2656-1.8898v-7.0191h-8.4976V31.811c-.3246.09-.8409.18-1.5491.27-.6786.09-1.3572.135-2.0359.135-.6786 0-1.2835-.06-1.8146-.18-.5016-.09-.9294-.27-1.2835-.5399-.3541-.27-.6196-.645-.7966-1.1249-.1771-.4799-.2656-1.1099-.2656-1.8898V4.7244c.3246-.06.8409-.135 1.5491-.225.7081-.12 1.3867-.18 2.0359-.18.6786 0 1.2687.06 1.7703.18.5311.09.9737.27 1.3278.54.354.27.6196.6449.7966 1.1248.1771.48.2656 1.1099.2656 1.8898v7.1991h8.4976V4.7244c.3246-.06.841-.135 1.5491-.225.7081-.12 1.3872-.18 2.0362-.18.678 0 1.268.06 1.77.18.531.09.974.27 1.328.54.354.27.619.6449.796 1.1248.177.48.266 1.1099.266 1.8898v23.757ZM132.901 21.0574c0 1.8597-.28 3.5245-.841 4.9943-.561 1.4399-1.357 2.6547-2.39 3.6446-1.003.9899-2.213 1.7398-3.629 2.2497-1.417.5099-2.995.7649-4.736.7649-1.741 0-3.319-.27-4.736-.8099-1.416-.5399-2.64-1.3048-3.673-2.2947-1.003-1.0199-1.785-2.2497-2.346-3.6895-.56-1.4399-.841-3.0597-.841-4.8594 0-1.7698.281-3.3746.841-4.8144.561-1.4399 1.343-2.6547 2.346-3.6446 1.033-1.0198 2.257-1.7998 3.673-2.3397 1.417-.54 2.995-.8099 4.736-.8099 1.741 0 3.319.285 4.736.8549 1.416.5399 2.626 1.3198 3.629 2.3397 1.033.9899 1.829 2.2047 2.39 3.6446.561 1.4398.841 3.0296.841 4.7694Zm-15.491 0c0 1.8297.34 3.2396 1.018 4.2294.708.9599 1.682 1.4399 2.921 1.4399 1.24 0 2.184-.495 2.833-1.4849.679-.9898 1.018-2.3847 1.018-4.1844 0-1.7998-.339-3.1796-1.018-4.1395-.679-.9899-1.638-1.4848-2.877-1.4848-1.239 0-2.198.4949-2.877 1.4848-.678.9599-1.018 2.3397-1.018 4.1395ZM136.572 10.4387c.295-.09.752-.18 1.372-.27.649-.09 1.313-.135 1.991-.135.649 0 1.225.045 1.726.135.531.09.974.27 1.328.54.354.2699.62.6449.797 1.1248.206.45.31 1.0499.31 1.7998v9.6738c0 1.2298.295 2.1147.885 2.6547.59.5099 1.445.7649 2.567.7649.678 0 1.224-.06 1.637-.18.443-.12.782-.24 1.018-.36v-15.748c.295-.09.753-.18 1.372-.27.649-.09 1.313-.135 1.992-.135.649 0 1.224.045 1.726.135.531.09.974.27 1.328.54.354.2699.619.6449.796 1.1248.207.45.31 1.0499.31 1.7998v13.6783c0 1.4998-.619 2.6247-1.859 3.3746-1.032.6599-2.272 1.1548-3.717 1.4848-1.417.3599-2.966.5399-4.648.5399-1.593 0-3.068-.18-4.425-.5399-1.328-.36-2.479-.9149-3.453-1.6648-.973-.7499-1.726-1.7098-2.257-2.8797-.531-1.1998-.796-2.6396-.796-4.3194V10.4387ZM180.478 25.4668c0 2.2797-.841 4.0645-2.523 5.3543-1.682 1.2899-4.161 1.9348-7.436 1.9348-1.239 0-2.39-.09-3.452-.27-1.062-.1799-1.977-.4499-2.744-.8099-.737-.3899-1.328-.8699-1.77-1.4398-.413-.5699-.62-1.2448-.62-2.0247 0-.7199.148-1.3199.443-1.7998.295-.5099.649-.9299 1.062-1.2598.856.4799 1.829.9148 2.921 1.3048 1.121.3599 2.405.5399 3.851.5399.914 0 1.608-.135 2.08-.4049.501-.27.752-.6299.752-1.0799 0-.4199-.177-.7499-.531-.9899-.354-.2399-.944-.4349-1.77-.5849l-1.328-.27c-2.567-.5099-4.485-1.3048-5.754-2.3847-1.239-1.1098-1.859-2.6846-1.859-4.7244 0-1.1098.236-2.1147.709-3.0146.472-.8999 1.136-1.6498 1.991-2.2497.856-.5999 1.874-1.0649 3.054-1.3948 1.21-.33 2.538-.495 3.983-.495 1.092 0 2.11.09 3.054.27.974.15 1.815.3899 2.523.7199.708.33 1.269.7649 1.682 1.3048.413.51.619 1.1249.619 1.8448 0 .6899-.132 1.2898-.398 1.7998-.236.4799-.546.8849-.929 1.2148-.236-.15-.591-.2999-1.063-.4499-.472-.18-.988-.33-1.549-.45a16.0113 16.0113 0 0 0-1.726-.3599c-.56-.09-1.077-.135-1.549-.135-.974 0-1.726.12-2.257.36-.531.2099-.797.5549-.797 1.0348 0 .33.148.6.443.8099.295.21.856.405 1.682.585l1.372.3149c2.832.6599 4.839 1.5748 6.019 2.7447 1.21 1.1398 1.815 2.6246 1.815 4.4544ZM195.706 32.7109c-1.741 0-3.364-.24-4.869-.7199-1.475-.5099-2.773-1.2598-3.895-2.2497-1.091-.9899-1.962-2.2347-2.611-3.7346-.619-1.4998-.929-3.2545-.929-5.2643 0-1.9797.31-3.6745.929-5.0844.649-1.4398 1.49-2.6096 2.523-3.5095 1.033-.9299 2.213-1.6048 3.541-2.0248 1.327-.45 2.685-.6749 4.071-.6749 1.564 0 2.981.24 4.249.7199 1.299.48 2.405 1.1399 3.32 1.9798.944.8399 1.667 1.8448 2.168 3.0146.531 1.1699.797 2.4447.797 3.8245 0 1.0199-.28 1.7998-.841 2.3397-.561.54-1.342.8849-2.346 1.0349l-10.932 1.6648c.325.9899.989 1.7398 1.992 2.2497 1.003.48 2.154.7199 3.452.7199 1.21 0 2.346-.15 3.408-.4499 1.092-.33 1.977-.7049 2.656-1.1249.472.3.87.7199 1.195 1.2599.324.5399.487 1.1098.487 1.7098 0 1.3498-.62 2.3547-1.859 3.0146-.944.5099-2.007.8549-3.187 1.0348-1.18.18-2.287.27-3.319.27Zm-1.24-17.6828c-.708 0-1.327.12-1.858.36-.502.2399-.915.5549-1.24.9449-.324.3599-.575.7799-.752 1.2598-.148.4499-.236.9149-.266 1.3948l7.569-1.2598c-.089-.5999-.413-1.1999-.974-1.7998-.561-.5999-1.387-.8999-2.479-.8999Z"
              fill="#3077C6"/>
    </symbol>

    <symbol id="night" viewBox="0 0 30 30">
        <path d="M25.6101 10.6101V4.3899h-6.2202L15 0l-4.3899 4.39H4.3899V10.61L0 15l4.39 4.3899v6.2202H10.61L15 30l4.3899-4.3899h6.2202v-6.2202L30 15l-4.3899-4.3899ZM15 22.9576c-1.1804 0-2.3077-.2653-3.3156-.7295 2.732-1.2599 4.6419-4.0185 4.6419-7.2281 0-3.2095-1.9099-5.9682-4.6419-7.2281 1.0079-.4642 2.1352-.7295 3.3156-.7295 4.3899 0 7.9576 3.5677 7.9576 7.9576 0 4.3899-3.5677 7.9576-7.9576 7.9576Z"
              fill="#fff"/>
    </symbol>

    <symbol id="account" viewBox="0 0 40 40">
        <path d="M20 0C8.96 0 0 8.96 0 20s8.96 20 20 20 20-8.96 20-20S31.04 0 20 0Zm0 6c3.32 0 6 2.68 6 6s-2.68 6-6 6-6-2.68-6-6 2.68-6 6-6Zm0 28.4c-5 0-9.42-2.56-12-6.44.06-3.98 8-6.16 12-6.16 3.98 0 11.94 2.18 12 6.16-2.58 3.88-7 6.44-12 6.44Z"
              fill="#fff"/>
    </symbol>

    <symbol id="headset" viewBox="0 0 100 100">
        <path d="M79.1667 58.3333V75h-8.3334V58.3333h8.3334Zm-50 0V75H25c-2.2917 0-4.1667-1.875-4.1667-4.1667v-12.5h8.3334ZM50 4.1666c-20.7083 0-37.5 16.7917-37.5 37.5v29.1667c0 6.9167 5.5833 12.5 12.5 12.5h12.5V50H20.8333v-8.3334C20.8333 25.5416 33.875 12.5 50 12.5s29.1667 13.0416 29.1667 29.1666V50H62.5v33.3333h16.6667V87.5H50v8.3333h25c6.9167 0 12.5-5.5833 12.5-12.5V41.6666c0-20.7083-16.7917-37.5-37.5-37.5Z" fill="#3077C6"/>
    </symbol>

    <symbol id="forum" viewBox="0 0 100 100">
        <path d="M62.5 16.6667v29.1667H21.5417l-4.875 4.875V16.6667H62.5Zm4.1667-8.3333H12.5c-2.2917 0-4.1667 1.875-4.1667 4.1666v58.3334L25 54.1667h41.6667c2.2916 0 4.1666-1.875 4.1666-4.1667V12.5c0-2.2916-1.875-4.1666-4.1666-4.1666ZM87.5 25h-8.3333v37.5H25v8.3334C25 73.125 26.875 75 29.1667 75H75l16.6667 16.6667v-62.5C91.6667 26.875 89.7917 25 87.5 25Z" fill="#3077C6"/>
    </symbol>

    <symbol id="devices" viewBox="0 0 100 100">
        <path d="M16.6667 25h75v-8.3334h-75c-4.5834 0-8.3334 3.75-8.3334 8.3334v45.8333H0v12.5h58.3333v-12.5H16.6667V25Zm79.1666 8.3333h-25c-2.2916 0-4.1666 1.875-4.1666 4.1667v41.6666c0 2.2917 1.875 4.1667 4.1666 4.1667h25c2.2917 0 4.1667-1.875 4.1667-4.1667V37.5c0-2.2917-1.875-4.1667-4.1667-4.1667Zm-4.1666 37.5H75V41.6666h16.6667v29.1667Z" fill="#3077C6"/>
    </symbol>

    <symbol id="thumb" viewBox="0 0 100 100">
        <path d="M87.5 33.3333H61.2083l3.9584-19.0417.125-1.3333c0-1.7083-.7084-3.2917-1.8334-4.4167l-4.4166-4.375L31.625 31.625c-1.5417 1.5-2.4583 3.5833-2.4583 5.875v41.6666c0 4.5834 3.75 8.3334 8.3333 8.3334H75c3.4583 0 6.4167-2.0834 7.6667-5.0834L95.25 53.0416c.375-.9583.5833-1.9583.5833-3.0416v-8.3334c0-4.5833-3.75-8.3333-8.3333-8.3333ZM87.5 50 75 79.1666H37.5V37.5l18.0833-18.0834-4.625 22.25H87.5V50ZM4.1667 37.5h16.6666v50H4.1667v-50Z" fill="#3077C6"/>
    </symbol>

    <symbol id="logo-white" viewBox="0 0 98 19">
        <path d="M.402 5.2362C.3033 5.0795.2116 4.8658.127 4.595.0422 4.3243 0 4.0394 0 3.7402c0-.5557.1199-.9547.3597-1.1969.2539-.2422.5783-.3633.9732-.3633h9.2248c.0988.1567.1905.3704.2751.6411.0846.2708.1269.5557.1269.855 0 .5556-.1269.9546-.3808 1.1968-.2398.2422-.5572.3633-.9521.3633H7.2783v9.874c-.1552.0428-.402.0855-.7405.1283a7.4506 7.4506 0 0 1-.9733.0641c-.3244 0-.6136-.0285-.8675-.0855-.2398-.0427-.4443-.1282-.6135-.2565-.1693-.1282-.2963-.3063-.3809-.5343-.0846-.228-.127-.5272-.127-.8976V5.2362H.402ZM15.2257 15.1744c-.1411.0427-.3667.0854-.6771.1282-.2962.0427-.6065.0641-.9309.0641-.3103 0-.5924-.0214-.8463-.0641-.2398-.0428-.4443-.1282-.6136-.2565-.1693-.1282-.3033-.2992-.402-.5129-.0846-.228-.1269-.5201-.1269-.8763V7.2452c0-.3277.0564-.6055.1692-.8335.127-.2422.3033-.456.529-.6412.2257-.1852.5007-.349.8251-.4915.3385-.1568.6982-.2921 1.0791-.4061a7.9556 7.9556 0 0 1 1.1848-.2565 7.1402 7.1402 0 0 1 1.2272-.1068c.677 0 1.213.1353 1.608.406.3949.2565.5924.684.5924 1.2824 0 .1994-.0282.399-.0847.5984a2.784 2.784 0 0 1-.2115.513 9.948 9.948 0 0 0-.9098.0427 9.3292 9.3292 0 0 0-.9098.1282c-.2962.057-.5783.1211-.8463.1924-.2539.057-.4725.1282-.6559.2137v7.288ZM20.2429 1.9235c0-.5414.1763-.9974.5289-1.3678C21.1386.1852 21.6182 0 22.2106 0s1.0649.1852 1.4175.5557c.3668.3704.5502.8264.5502 1.3678 0 .5414-.1834.9974-.5502 1.3678-.3526.3705-.8251.5557-1.4175.5557s-1.072-.1852-1.4388-.5557c-.3526-.3704-.5289-.8264-.5289-1.3678Zm3.7661 13.2509c-.1552.0285-.3879.0641-.6982.1068a4.804 4.804 0 0 1-.9098.0855c-.3103 0-.5924-.0214-.8463-.0641-.2398-.0428-.4443-.1282-.6136-.2565-.1693-.1282-.3033-.2992-.402-.5129-.0846-.228-.1269-.5201-.1269-.8763V4.9584c.1551-.0285.3808-.0641.677-.1069a5.1437 5.1437 0 0 1 .931-.0855c.3103 0 .5853.0214.8251.0641.2539.0428.4655.1283.6347.2565.1693.1283.2963.3064.3809.5343.0987.2138.1481.4987.1481.855v8.6985ZM31.017 4.4882c.8463 0 1.6292.114 2.3485.342.7335.2137 1.3612.5485 1.8831 1.0045.5219.4559.9309 1.033 1.2271 1.7311.2962.684.4443 1.5032.4443 2.4578 0 .9119-.1269 1.7098-.3808 2.3937s-.6136 1.261-1.079 1.7312c-.4655.4559-1.0297.7979-1.6927 1.0259-.6488.2279-1.3752.3419-2.1792.3419-.6065 0-1.1708-.0926-1.6926-.2778v3.5478c-.1411.0427-.3668.0855-.6771.1282a5.2594 5.2594 0 0 1-.9521.0855c-.3103 0-.5924-.0214-.8463-.0641-.2398-.0428-.4443-.1283-.6136-.2565-.1692-.1282-.2962-.3063-.3808-.5343-.0847-.2137-.127-.4987-.127-.8549V7.0315c0-.3847.0776-.6982.2328-.9404.1692-.2422.3949-.463.677-.6625.4373-.285.9803-.513 1.6292-.684.6488-.171 1.3752-.2564 2.1792-.2564Zm.0423 8.1642c1.4529 0 2.1793-.8762 2.1793-2.6288 0-.9119-.1834-1.5886-.5501-2.0304-.3526-.4416-.8675-.6625-1.5445-.6625-.268 0-.5078.0356-.7194.1069-.2116.057-.3949.1282-.5501.2137v4.7019c.1693.0855.3526.1567.5501.2137.1975.057.409.0855.6347.0855ZM50.4179 15.1102c-.1552.0428-.402.0855-.7405.1283a7.4512 7.4512 0 0 1-.9733.0641c-.3244 0-.6136-.0285-.8675-.0855-.2397-.0427-.4443-.1282-.6135-.2565-.1693-.1282-.2962-.3063-.3809-.5343-.0846-.228-.1269-.5272-.1269-.8976v-3.3341H42.653v4.9156c-.1552.0428-.402.0855-.7405.1283a7.4524 7.4524 0 0 1-.9733.0641c-.3244 0-.6136-.0285-.8675-.0855-.2398-.0427-.4443-.1282-.6135-.2565-.1693-.1282-.2963-.3063-.3809-.5343-.0846-.228-.1269-.5272-.1269-.8976V2.2441c.1551-.0285.402-.0641.7405-.1069.3385-.057.6629-.0855.9733-.0855.3244 0 .6065.0285.8463.0855.2539.0428.4654.1283.6347.2565.1693.1282.2962.3063.3808.5343.0847.228.127.5272.127.8977v3.4195h4.0623V2.2441c.1551-.0285.402-.0641.7405-.1069.3385-.057.663-.0855.9733-.0855.3244 0 .6065.0285.8463.0855.2539.0428.4654.1283.6347.2565.1693.1282.2962.3063.3809.5343.0846.228.1269.5272.1269.8977v11.2845ZM63.5331 10.0022c0 .8834-.134 1.6742-.402 2.3724-.268.6839-.6488 1.2609-1.1425 1.7311-.4796.4702-1.0579.8264-1.735 1.0687-.677.2422-1.4316.3633-2.2639.3633-.8322 0-1.5868-.1283-2.2638-.3847-.6771-.2565-1.2624-.6198-1.7561-1.09-.4796-.4844-.8534-1.0686-1.1214-1.7525-.268-.684-.402-1.4534-.402-2.3083 0-.8406.134-1.6029.402-2.2868s.6418-1.261 1.1214-1.7311c.4937-.4845 1.079-.855 1.7561-1.1114.677-.2565 1.4316-.3847 2.2638-.3847.8323 0 1.5869.1353 2.2639.406.6771.2565 1.2554.627 1.735 1.1114.4937.4702.8745 1.0473 1.1425 1.7312.268.6839.402 1.439.402 2.2654Zm-7.4052 0c0 .8692.1622 1.5389.4866 2.009.3385.456.804.684 1.3964.684s1.0438-.2351 1.3541-.7053c.3244-.4702.4866-1.1328.4866-1.9877 0-.8548-.1622-1.5103-.4866-1.9662-.3244-.4702-.7828-.7053-1.3753-.7053-.5924 0-1.0508.2351-1.3752.7053-.3244.456-.4866 1.1114-.4866 1.9662ZM65.2879 4.9584c.141-.0428.3597-.0855.6559-.1283a6.9682 6.9682 0 0 1 .9521-.064c.3103 0 .5853.0213.8251.064.2539.0428.4655.1283.6348.2565.1692.1283.2962.3064.3808.5343.0987.2138.1481.4987.1481.855v4.595c0 .5841.1411 1.0045.4232 1.2609.2821.2423.6911.3634 1.2271.3634.3244 0 .5854-.0285.7828-.0855.2116-.057.3738-.114.4867-.171V4.9584c.141-.0428.3597-.0855.6559-.1283a6.9693 6.9693 0 0 1 .9521-.064c.3103 0 .5853.0213.8251.064.2539.0428.4655.1283.6348.2565.1692.1283.2962.3064.3808.5343.0987.2138.1481.4987.1481.855v6.4971c0 .7124-.2962 1.2467-.8886 1.6029-.4937.3135-1.0861.5486-1.7773.7053-.677.171-1.4176.2565-2.2215.2565-.7617 0-1.467-.0855-2.1158-.2565-.6348-.171-1.1849-.4346-1.6503-.7908-.4655-.3562-.8252-.8121-1.0791-1.3678-.2539-.5699-.3808-1.2538-.3808-2.0517V4.9584ZM86.2771 12.0967c0 1.0829-.402 1.9307-1.206 2.5433-.804.6127-1.9889.9191-3.5545.9191-.5925 0-1.1425-.0428-1.6503-.1283-.5078-.0855-.9451-.2137-1.3118-.3847-.3526-.1852-.6348-.4132-.8463-.6839-.1975-.2707-.2962-.5913-.2962-.9618 0-.3419.0705-.6269.2115-.8548.1411-.2423.3104-.4417.5078-.5985.4091.228.8745.4346 1.3964.6198.536.171 1.1496.2565 1.8408.2565.4372 0 .7687-.0641.9944-.1924.2398-.1282.3597-.2992.3597-.5129 0-.1995-.0847-.3562-.2539-.4702-.1693-.114-.4514-.2066-.8463-.2778l-.6348-.1283c-1.2271-.2422-2.144-.6198-2.7505-1.1327-.5924-.5272-.8886-1.2752-.8886-2.244 0-.5273.1128-1.0046.3385-1.432.2257-.4275.5431-.7837.9521-1.0686.4091-.285.8957-.5059 1.4599-.6626.5783-.1567 1.213-.235 1.9042-.235.5219 0 1.0085.0427 1.4599.1281.4655.0713.8675.1853 1.206.342.3385.1567.6065.3633.804.6198.1975.2422.2962.5343.2962.8763 0 .3277-.0635.6126-.1904.8549-.1129.228-.261.4203-.4443.577-.1129-.0712-.2821-.1425-.5078-.2137-.2257-.0855-.4725-.1567-.7405-.2137a7.707 7.707 0 0 0-.8252-.171c-.268-.0428-.5149-.0641-.7405-.0641-.4655 0-.8252.057-1.0791.171-.2539.0997-.3808.2636-.3808.4915 0 .1568.0705.285.2116.3847.141.0998.409.1924.804.2779l.6559.1496c1.3541.3134 2.3132.748 2.8774 1.3037.5783.5414.8675 1.2467.8675 2.1158ZM93.5569 15.5377c-.8323 0-1.608-.114-2.3274-.342-.7053-.2422-1.3259-.5984-1.8619-1.0686-.5219-.4702-.938-1.0615-1.2483-1.7739-.2962-.7124-.4443-1.5459-.4443-2.5006 0-.9403.1481-1.7454.4443-2.415.3103-.684.7123-1.2396 1.206-1.667.4937-.4418 1.0579-.7623 1.6926-.9618.6347-.2138 1.2836-.3206 1.9465-.3206.7476 0 1.4247.114 2.0312.342.6206.228 1.1496.5414 1.5868.9403.4514.399.797.8763 1.0368 1.432C97.873 7.7582 98 8.3637 98 9.019c0 .4845-.134.855-.402 1.1114-.268.2565-.6418.4203-1.1214.4915l-5.226.7908c.1552.4702.4726.8264.9522 1.0686.4795.228 1.0296.342 1.6503.342.5783 0 1.1213-.0712 1.6291-.2137.5219-.1568.9451-.3349 1.2695-.5343.2257.1424.4161.3419.5712.5984.1552.2565.2328.5272.2328.8121 0 .6412-.2962 1.1185-.8886 1.432-.4514.2422-.9592.4061-1.5234.4915-.5642.0855-1.0932.1283-1.5868.1283Zm-.5925-8.3993c-.3385 0-.6347.057-.8886.171-.2398.114-.4373.2635-.5924.4488-.1552.171-.2751.3704-.3597.5984a2.6228 2.6228 0 0 0-.1269.6625l3.6179-.5984c-.0423-.285-.1974-.57-.4654-.8549-.268-.285-.663-.4274-1.1849-.4274Z" fill="#fff"/>
    </symbol>

    <symbol id="menu" viewBox="0 0 24 16">
        <path d="M0 16h24v-2.6667H0V16Zm0-6.6667h24V6.6667H0v2.6666ZM0 0v2.6667h24V0H0Z" fill="#fff"/>
    </symbol>

    <symbol id="close" viewBox="0 0 26 26">
        <path d="M26 1.4857 24.5144 0 13 11.5143 1.4857 0 0 1.4857 11.5143 13 0 24.5144 1.4857 26 13 14.4857 24.5144 26 26 24.5144 14.4857 13 26 1.4857Z" fill="#BFBFBF"/>
    </symbol>

    <symbol id="user" viewBox="0 0 86 86">
        <circle cx="43" cy="43" r="43" fill="#fff"/>
        <path d="M46.6518 55.7484c0-2.0561.5115-4.0303 1.473-5.7897-1.3605-.7672-2.3629-1.2684-2.7823-1.473-.133-.0614-.2046-.1944-.2046-.3376v-8.081c1.0127-.6751 1.6878-1.831 1.6878-3.1403v-8.3777c0-4.1633-3.3756-7.5491-7.5491-7.5491h-1.8003c-4.1633 0-7.5491 3.3756-7.5491 7.5491v8.3777c0 1.3093.6751 2.4652 1.6878 3.1403v8.081c0 .1432-.0819.2762-.2046.3376-1.1559.5626-6.7512 3.3858-11.9374 7.6514-.9411.7672-1.473 1.9231-1.473 3.1403v5.7386h32.9787c-.2762-.2251-.5319-.4706-.7876-.7263-2.2811-2.2811-3.5393-5.3192-3.5393-8.5413Z" fill="#3077C6"/><path d="M58.7324 46.4807c-5.1145 0-9.2676 4.153-9.2676 9.2675 0 5.1146 4.1531 9.2676 9.2676 9.2676 5.1146 0 9.2676-4.153 9.2676-9.2676 0-5.1145-4.1428-9.2675-9.2676-9.2675Zm5.4215 10.6178h-4.0712v4.0712h-2.7005v-4.0712H53.311V54.398h4.0712v-4.0712h2.7005v4.0712h4.0712v2.7005Z" fill="#3077C6"/>
    </symbol>

    <symbol id="logo__sign-up" viewBox="0 0 58 58">
        <rect width="58" height="58" rx="4" fill="#3077C6"/>
        <path d="M2.5858 26.6094c-.0537-.0879-.1035-.2077-.1495-.3595a1.644 1.644 0 0 1-.069-.4793c0-.3116.0652-.5353.1955-.6711.138-.1358.3143-.2037.529-.2037h5.0139c.0537.0879.1035.2077.1495.3595s.069.3116.069.4793c0 .3116-.069.5353-.207.6711-.1303.1358-.3028.2037-.5175.2037H6.3232v5.5362c-.0843.024-.2185.048-.4025.0719a3.918 3.918 0 0 1-.529.036c-.1763 0-.3335-.016-.4714-.0479-.1304-.024-.2415-.0719-.3335-.1438-.092-.0719-.161-.1718-.207-.2996-.046-.1278-.069-.2956-.069-.5033v-4.6495h-1.725ZM10.6428 32.1816c-.0766.024-.1993.0479-.368.0719a3.4302 3.4302 0 0 1-.506.0359c-.1686 0-.322-.0119-.46-.0359-.1303-.024-.2414-.0719-.3334-.1438-.092-.0719-.1649-.1678-.2185-.2876-.046-.1278-.069-.2916-.069-.4913v-3.595c0-.1837.0306-.3395.092-.4673.069-.1358.1648-.2557.2875-.3595.1226-.1039.2721-.1957.4485-.2756a4.3043 4.3043 0 0 1 .5864-.2277 4.2051 4.2051 0 0 1 .644-.1438c.2224-.04.4447-.0599.667-.0599.368 0 .6593.0759.874.2277.2147.1438.322.3834.322.7189 0 .1119-.0153.2237-.046.3356a1.5933 1.5933 0 0 1-.115.2876c-.161 0-.3258.008-.4945.0239-.1687.016-.3335.04-.4945.0719a6.5947 6.5947 0 0 0-.46.1079c-.138.0319-.2568.0719-.3565.1198v4.0863ZM13.3698 24.752c0-.3036.0958-.5592.2875-.7669.1993-.2077.46-.3116.782-.3116s.5788.1039.7705.3116c.1993.2077.299.4633.299.7669 0 .3036-.0997.5592-.299.7669-.1917.2077-.4485.3116-.7705.3116-.322 0-.5827-.1039-.782-.3116-.1917-.2077-.2875-.4633-.2875-.7669Zm2.047 7.4296c-.0844.016-.2109.0359-.3795.0599a2.531 2.531 0 0 1-.4945.0479c-.1687 0-.322-.0119-.46-.0359-.1303-.024-.2415-.0719-.3335-.1438-.092-.0719-.1648-.1678-.2185-.2876-.046-.1278-.069-.2916-.069-.4913v-4.8772c.0843-.016.207-.0359.368-.0599a2.7173 2.7173 0 0 1 .506-.0479c.1686 0 .3181.012.4485.0359.138.024.253.0719.345.1438.092.0719.161.1718.207.2996.0536.1198.0805.2796.0805.4793v4.8772ZM19.2258 26.19c.46 0 .8855.0639 1.2765.1917.3986.1199.7398.3076 1.0234.5632.2837.2557.506.5792.667.9707.161.3834.2415.8428.2415 1.378 0 .5113-.069.9587-.207 1.3422-.138.3834-.3335.707-.5865.9706-.253.2556-.5596.4474-.9199.5752-.3527.1278-.7475.1917-1.1845.1917-.3297 0-.6363-.0519-.92-.1558v1.9893c-.0767.0239-.1993.0479-.368.0719a2.7792 2.7792 0 0 1-.5175.0479c-.1686 0-.322-.012-.46-.036-.1303-.0239-.2415-.0719-.3335-.1438-.092-.0719-.161-.1717-.207-.2995-.046-.1199-.069-.2797-.069-.4794V27.616c0-.2157.0422-.3915.1265-.5273.092-.1358.2147-.2596.368-.3714.2377-.1598.5329-.2876.8855-.3835.3527-.0959.7475-.1438 1.1845-.1438Zm.023 4.5776c.7896 0 1.1845-.4913 1.1845-1.474 0-.5112-.0997-.8907-.299-1.1384-.1917-.2476-.4715-.3714-.8395-.3714-.1457 0-.276.0199-.391.0599-.115.0319-.2147.0719-.299.1198v2.6363c.092.0479.1917.0879.299.1198.1073.032.2223.048.345.048ZM29.7706 32.1456c-.0843.024-.2185.048-.4025.0719a3.917 3.917 0 0 1-.529.036c-.1763 0-.3335-.016-.4714-.0479-.1304-.024-.2415-.0719-.3335-.1438-.092-.0719-.161-.1718-.207-.2996-.046-.1278-.069-.2956-.069-.5033v-1.8694h-2.208v2.7561c-.0843.024-.2185.048-.4025.0719a3.917 3.917 0 0 1-.529.036c-.1763 0-.3335-.016-.4715-.0479-.1303-.024-.2415-.0719-.3335-.1438-.092-.0719-.161-.1718-.207-.2996-.0459-.1278-.0689-.2956-.0689-.5033v-6.3271c.0843-.016.2184-.036.4024-.06a3.0992 3.0992 0 0 1 .529-.0479c.1764 0 .3297.016.46.0479.138.024.253.0719.345.1438.092.0719.161.1718.207.2996.046.1278.069.2956.069.5033v1.9173h2.208v-2.804c.0843-.016.2185-.036.4025-.06a3.098 3.098 0 0 1 .5289-.0479c.1764 0 .3297.016.46.0479.138.024.253.0719.345.1438.092.0719.161.1718.207.2996.046.1278.069.2956.069.5033v6.3271ZM36.899 29.2817c0 .4953-.0728.9386-.2185 1.3301-.1456.3835-.3526.707-.6209.9706-.2607.2637-.575.4634-.943.5992-.368.1358-.7782.2037-1.2305.2037-.4523 0-.8625-.0719-1.2305-.2157-.368-.1438-.6861-.3475-.9545-.6111-.2606-.2717-.4638-.5992-.6094-.9827-.1457-.3834-.2185-.8148-.2185-1.2941 0-.4714.0728-.8988.2185-1.2822.1456-.3835.3488-.7071.6094-.9707.2684-.2716.5865-.4793.9545-.6231.368-.1438.7782-.2157 1.2305-.2157.4523 0 .8625.0759 1.2305.2277.368.1438.6823.3515.943.6231.2683.2636.4753.5872.6209.9706.1457.3835.2185.8069.2185 1.2703Zm-4.0249 0c0 .4873.0882.8627.2645 1.1264.184.2556.437.3834.759.3834s.5673-.1318.736-.3954c.1763-.2636.2645-.6351.2645-1.1144 0-.4794-.0882-.8469-.2645-1.1025-.1763-.2636-.4255-.3954-.7475-.3954-.322 0-.5712.1318-.7475.3954-.1763.2556-.2645.6231-.2645 1.1025ZM37.8528 26.4536c.0767-.0239.1955-.0479.3565-.0719a3.6852 3.6852 0 0 1 .5175-.0359c.1686 0 .3181.012.4485.0359.138.024.253.0719.345.1438.092.0719.161.1718.207.2996.0536.1198.0805.2796.0805.4793v2.5764c0 .3276.0766.5632.23.707.1533.1358.3756.2037.6669.2037.1764 0 .3182-.0159.4255-.0479.115-.0319.2032-.0639.2645-.0959v-4.1941c.0767-.0239.1955-.0479.3565-.0719a3.6852 3.6852 0 0 1 .5175-.0359c.1687 0 .3182.012.4485.0359.138.024.253.0719.345.1438.092.0719.161.1718.207.2996.0537.1198.0805.2796.0805.4793v3.6429c0 .3995-.161.699-.483.8988-.2683.1757-.5903.3075-.966.3954-.368.0959-.7705.1438-1.2075.1438-.4139 0-.7973-.0479-1.1499-.1438-.345-.0959-.644-.2437-.897-.4434-.253-.1997-.4485-.4553-.5865-.7669-.138-.3195-.207-.703-.207-1.1504v-3.4272ZM49.2609 30.456c0 .6072-.2185 1.0825-.6555 1.426-.437.3435-1.0809.5153-1.9319.5153-.322 0-.621-.024-.897-.0719-.276-.0479-.5137-.1198-.713-.2157-.1916-.1039-.345-.2317-.46-.3835-.1073-.1518-.161-.3315-.161-.5392 0-.1917.0384-.3515.115-.4793.0767-.1359.1687-.2477.276-.3356.2223.1279.4753.2437.759.3475.2913.0959.6248.1438 1.0005.1438.2376 0 .4178-.0359.5405-.1078.1303-.0719.1955-.1678.1955-.2876 0-.1118-.046-.1997-.138-.2636-.092-.0639-.2454-.1159-.46-.1558l-.345-.0719c-.667-.1358-1.1653-.3475-1.495-.6351-.322-.2956-.483-.715-.483-1.2583 0-.2955.0614-.5632.184-.8028.1227-.2397.2952-.4394.5175-.5992.2223-.1598.4868-.2836.7935-.3715.3143-.0879.6593-.1318 1.035-.1318.2836 0 .5481.024.7935.0719.253.04.4715.1039.6554.1917.184.0879.3297.2038.437.3476.1074.1358.161.2995.161.4913 0 .1837-.0345.3435-.1035.4793-.0613.1278-.1418.2357-.2415.3235-.0613-.0399-.1533-.0798-.276-.1198a2.6849 2.6849 0 0 0-.4024-.1198 4.0712 4.0712 0 0 0-.4485-.0959c-.1457-.024-.2799-.0359-.4025-.0359-.253 0-.4485.0319-.5865.0958-.138.0559-.207.1478-.207.2756 0 .0879.0383.1598.115.2157.0767.056.2223.1079.437.1558l.3565.0839c.736.1758 1.2573.4194 1.5639.731.3144.3035.4715.699.4715 1.1863ZM53.2177 32.3853c-.4524 0-.874-.0639-1.265-.1917-.3833-.1358-.7207-.3356-1.012-.5992-.2837-.2636-.5098-.5952-.6785-.9946-.161-.3994-.2415-.8668-.2415-1.402 0-.5273.0805-.9787.2415-1.3541.1687-.3835.3872-.6951.6555-.9347a2.4601 2.4601 0 0 1 .92-.5393 3.2034 3.2034 0 0 1 1.058-.1797c.4063 0 .7743.0639 1.1039.1917.3374.1278.6249.3036.8625.5273.2454.2237.4332.4913.5635.8029.138.3115.207.651.207 1.0185 0 .2717-.0728.4794-.2185.6232-.1457.1438-.3488.2356-.6095.2756l-2.8404.4433c.0843.2637.2568.4634.5175.5992.2606.1278.5596.1917.897.1917.3143 0 .6094-.0399.8854-.1198.2837-.0879.5137-.1877.69-.2996.1227.0799.2262.1918.3105.3356.0843.1438.1265.2955.1265.4553 0 .3595-.161.6271-.483.8029-.2453.1358-.5213.2277-.828.2756-.3066.0479-.5941.0719-.8624.0719Zm-.322-4.7094c-.184 0-.345.032-.483.0959-.1304.0639-.2377.1478-.322.2516a1.031 1.031 0 0 0-.1955.3356 1.509 1.509 0 0 0-.069.3714l1.9664-.3355c-.023-.1598-.1073-.3195-.253-.4793-.1456-.1598-.3603-.2397-.6439-.2397Z" fill="#fff"/>
    </symbol>

    <symbol id="account-review" viewBox="0 0 64 64">
        <path fill="#bfbfbf" d="M32 5.3334C17.28 5.3334 5.3333 17.28 5.3333 32 5.3333 46.72 17.28 58.6667 32 58.6667 46.72 58.6667 58.6666 46.72 58.6666 32 58.6666 17.28 46.72 5.3334 32 5.3334Zm0 8c4.4266 0 8 3.5733 8 8 0 4.4266-3.5734 8-8 8-4.4267 0-8-3.5734-8-8 0-4.4267 3.5733-8 8-8ZM32 51.2c-6.6667 0-12.56-3.4133-16-8.5866.08-5.3067 10.6666-8.2134 16-8.2134 5.3066 0 15.92 2.9067 16 8.2134C44.56 47.7867 38.6666 51.2 32 51.2Z"/>
    </symbol>

    <symbol id="germany" viewBox="0 0 640 480">
        <path fill="#ffce00" d="M0 320h640v160H0z"/>
        <path d="M0 0h640v160H0z"/>
        <path fill="#d00" d="M0 160h640v160H0z"/>
    </symbol>

    <symbol id="ukraine" viewBox="0 0 640 480">
        <g fill-rule="evenodd" stroke-width="1pt">
            <path fill="gold" d="M0 0h640v480H0z"/>
            <path fill="#0057b8" d="M0 0h640v240H0z"/>
        </g>
    </symbol>

    <symbol id="usa" viewBox="0 0 640 480">
        <g fill-rule="evenodd">
            <g stroke-width="1pt">
                <path fill="#bd3d44" d="M0 0h912v37H0zm0 73.9h912v37H0zm0 73.8h912v37H0zm0 73.8h912v37H0zm0 74h912v36.8H0zm0 73.7h912v37H0zM0 443h912V480H0z"/>
                <path fill="#fff" d="M0 37h912v36.9H0zm0 73.8h912v36.9H0zm0 73.8h912v37H0zm0 73.9h912v37H0zm0 73.8h912v37H0zm0 73.8h912v37H0z"/>
            </g>
            <path fill="#192f5d" d="M0 0h364.8v258.5H0z"/>
            <path fill="#fff" d="m30.4 11 3.4 10.3h10.6l-8.6 6.3 3.3 10.3-8.7-6.4-8.6 6.3L25 27.6l-8.7-6.3h10.9zm60.8 0 3.3 10.3h10.8l-8.7 6.3 3.2 10.3-8.6-6.4-8.7 6.3 3.3-10.2-8.6-6.3h10.6zm60.8 0 3.3 10.3H166l-8.6 6.3 3.3 10.3-8.7-6.4-8.7 6.3 3.3-10.2-8.7-6.3h10.8zm60.8 0 3.3 10.3h10.8l-8.7 6.3 3.3 10.3-8.7-6.4-8.7 6.3 3.4-10.2-8.8-6.3h10.7zm60.8 0 3.3 10.3h10.7l-8.6 6.3 3.3 10.3-8.7-6.4-8.7 6.3 3.3-10.2-8.6-6.3h10.7zm60.8 0 3.3 10.3h10.8l-8.8 6.3 3.4 10.3-8.7-6.4-8.7 6.3 3.4-10.2-8.8-6.3h10.8zM60.8 37l3.3 10.2H75l-8.7 6.2 3.2 10.3-8.5-6.3-8.7 6.3 3.1-10.3-8.4-6.2h10.7zm60.8 0 3.4 10.2h10.7l-8.8 6.2 3.4 10.3-8.7-6.3-8.7 6.3 3.3-10.3-8.7-6.2h10.8zm60.8 0 3.3 10.2h10.8l-8.7 6.2 3.3 10.3-8.7-6.3-8.7 6.3 3.3-10.3-8.6-6.2H179zm60.8 0 3.4 10.2h10.7l-8.8 6.2 3.4 10.3-8.7-6.3-8.6 6.3 3.2-10.3-8.7-6.2H240zm60.8 0 3.3 10.2h10.8l-8.7 6.2 3.3 10.3-8.7-6.3-8.7 6.3 3.3-10.3-8.6-6.2h10.7zM30.4 62.6l3.4 10.4h10.6l-8.6 6.3 3.3 10.2-8.7-6.3-8.6 6.3L25 79.3 16.3 73h10.9zm60.8 0L94.5 73h10.8l-8.7 6.3 3.2 10.2-8.6-6.3-8.7 6.3 3.3-10.3-8.6-6.3h10.6zm60.8 0 3.3 10.3H166l-8.6 6.3 3.3 10.2-8.7-6.3-8.7 6.3 3.3-10.3-8.7-6.3h10.8zm60.8 0 3.3 10.3h10.8l-8.7 6.3 3.3 10.2-8.7-6.3-8.7 6.3 3.4-10.3-8.8-6.3h10.7zm60.8 0 3.3 10.3h10.7l-8.6 6.3 3.3 10.2-8.7-6.3-8.7 6.3 3.3-10.3-8.6-6.3h10.7zm60.8 0 3.3 10.3h10.8l-8.8 6.3 3.4 10.2-8.7-6.3-8.7 6.3 3.4-10.3-8.8-6.3h10.8zM60.8 88.6l3.3 10.2H75l-8.7 6.3 3.3 10.3-8.7-6.4-8.7 6.3 3.3-10.2-8.6-6.3h10.7zm60.8 0 3.4 10.2h10.7l-8.8 6.3 3.4 10.3-8.7-6.4-8.7 6.3 3.3-10.2-8.7-6.3h10.8zm60.8 0 3.3 10.2h10.8l-8.7 6.3 3.3 10.3-8.7-6.4-8.7 6.3 3.3-10.2-8.6-6.3H179zm60.8 0 3.4 10.2h10.7l-8.7 6.3 3.3 10.3-8.7-6.4-8.6 6.3 3.2-10.2-8.7-6.3H240zm60.8 0 3.3 10.2h10.8l-8.7 6.3 3.3 10.3-8.7-6.4-8.7 6.3 3.3-10.2-8.6-6.3h10.7zM30.4 114.5l3.4 10.2h10.6l-8.6 6.3 3.3 10.3-8.7-6.4-8.6 6.3L25 131l-8.7-6.3h10.9zm60.8 0 3.3 10.2h10.8l-8.7 6.3 3.2 10.2-8.6-6.3-8.7 6.3 3.3-10.2-8.6-6.3h10.6zm60.8 0 3.3 10.2H166l-8.6 6.3 3.3 10.3-8.7-6.4-8.7 6.3 3.3-10.2-8.7-6.3h10.8zm60.8 0 3.3 10.2h10.8l-8.7 6.3 3.3 10.3-8.7-6.4-8.7 6.3 3.4-10.2-8.8-6.3h10.7zm60.8 0 3.3 10.2h10.7L279 131l3.3 10.3-8.7-6.4-8.7 6.3 3.3-10.2-8.6-6.3h10.7zm60.8 0 3.3 10.2h10.8l-8.8 6.3 3.4 10.3-8.7-6.4-8.7 6.3L329 131l-8.8-6.3h10.8zM60.8 140.3l3.3 10.3H75l-8.7 6.2 3.3 10.3-8.7-6.4-8.7 6.4 3.3-10.3-8.6-6.3h10.7zm60.8 0 3.4 10.3h10.7l-8.8 6.2 3.4 10.3-8.7-6.4-8.7 6.4 3.3-10.3-8.7-6.3h10.8zm60.8 0 3.3 10.3h10.8l-8.7 6.2 3.3 10.3-8.7-6.4-8.7 6.4 3.3-10.3-8.6-6.3H179zm60.8 0 3.4 10.3h10.7l-8.7 6.2 3.3 10.3-8.7-6.4-8.6 6.4 3.2-10.3-8.7-6.3H240zm60.8 0 3.3 10.3h10.8l-8.7 6.2 3.3 10.3-8.7-6.4-8.7 6.4 3.3-10.3-8.6-6.3h10.7zM30.4 166.1l3.4 10.3h10.6l-8.6 6.3 3.3 10.1-8.7-6.2-8.6 6.2 3.2-10.2-8.7-6.3h10.9zm60.8 0 3.3 10.3h10.8l-8.7 6.3 3.3 10.1-8.7-6.2-8.7 6.2 3.4-10.2-8.7-6.3h10.6zm60.8 0 3.3 10.3H166l-8.6 6.3 3.3 10.1-8.7-6.2-8.7 6.2 3.3-10.2-8.7-6.3h10.8zm60.8 0 3.3 10.3h10.8l-8.7 6.3 3.3 10.1-8.7-6.2-8.7 6.2 3.4-10.2-8.8-6.3h10.7zm60.8 0 3.3 10.3h10.7l-8.6 6.3 3.3 10.1-8.7-6.2-8.7 6.2 3.3-10.2-8.6-6.3h10.7zm60.8 0 3.3 10.3h10.8l-8.8 6.3 3.4 10.1-8.7-6.2-8.7 6.2 3.4-10.2-8.8-6.3h10.8zM60.8 192l3.3 10.2H75l-8.7 6.3 3.3 10.3-8.7-6.4-8.7 6.3 3.3-10.2-8.6-6.3h10.7zm60.8 0 3.4 10.2h10.7l-8.8 6.3 3.4 10.3-8.7-6.4-8.7 6.3 3.3-10.2-8.7-6.3h10.8zm60.8 0 3.3 10.2h10.8l-8.7 6.3 3.3 10.3-8.7-6.4-8.7 6.3 3.3-10.2-8.6-6.3H179zm60.8 0 3.4 10.2h10.7l-8.7 6.3 3.3 10.3-8.7-6.4-8.6 6.3 3.2-10.2-8.7-6.3H240zm60.8 0 3.3 10.2h10.8l-8.7 6.3 3.3 10.3-8.7-6.4-8.7 6.3 3.3-10.2-8.6-6.3h10.7zM30.4 217.9l3.4 10.2h10.6l-8.6 6.3 3.3 10.2-8.7-6.3-8.6 6.3 3.2-10.3-8.7-6.3h10.9zm60.8 0 3.3 10.2h10.8l-8.7 6.3 3.3 10.2-8.7-6.3-8.7 6.3 3.4-10.3-8.7-6.3h10.6zm60.8 0 3.3 10.2H166l-8.4 6.3 3.3 10.2-8.7-6.3-8.7 6.3 3.3-10.3-8.7-6.3h10.8zm60.8 0 3.3 10.2h10.8l-8.7 6.3 3.3 10.2-8.7-6.3-8.7 6.3 3.4-10.3-8.8-6.3h10.7zm60.8 0 3.3 10.2h10.7l-8.6 6.3 3.3 10.2-8.7-6.3-8.7 6.3 3.3-10.3-8.6-6.3h10.7zm60.8 0 3.3 10.2h10.8l-8.8 6.3 3.4 10.2-8.7-6.3-8.7 6.3 3.4-10.3-8.8-6.3h10.8z"/>
        </g>
    </symbol>
</svg>